0
SECTION
2
HEADER
9
$INSUNITS
70
4
9
$ACADVER
1
AC1014
9
$HANDSEED
5
FFFF
0
ENDSEC
0
SECTION
2
TABLES
0
TABLE
2
VPORT
5
8
100
AcDbSymbolTable
0
ENDTAB
0
TABLE
2
LTYPE
5
5
100
AcDbSymbolTable
0
LTYPE
5
14
100
AcDbSymbolTableRecord
100
AcDbLinetypeTableRecord
2
BYBLOCK
70
0
0
LTYPE
5
15
100
AcDbSymbolTableRecord
100
AcDbLinetypeTableRecord
2
BYLAYER
70
0
0
ENDTAB
0
TABLE
2
LAYER
5
2
100
AcDbSymbolTable
70
2
0
LAYER
5
50
100
AcDbSymbolTableRecord
100
AcDbLayerTableRecord
2
0
70
0
6
CONTINUOUS
0
ENDTAB
0
TABLE
2
STYLE
5
3
100
AcDbSymbolTable
70
1
0
STYLE
5
11
100
AcDbSymbolTableRecord
100
AcDbTextStyleTableRecord
2
STANDARD
70
0
0
ENDTAB
0
TABLE
2
VIEW
5
6
100
AcDbSymbolTable
70
0
0
ENDTAB
0
TABLE
2
UCS
5
7
100
AcDbSymbolTable
70
0
0
ENDTAB
0
TABLE
2
APPID
5
9
100
AcDbSymbolTable
70
2
0
APPID
5
12
100
AcDbSymbolTableRecord
100
AcDbRegAppTableRecord
2
ACAD
70
0
0
ENDTAB
0
TABLE
2
DIMSTYLE
5
A
100
AcDbSymbolTable
70
1
0
ENDTAB
0
TABLE
2
BLOCK_RECORD
5
1
100
AcDbSymbolTable
70
1
0
BLOCK_RECORD
5
1F
100
AcDbSymbolTableRecord
100
AcDbBlockTableRecord
2
*MODEL_SPACE
0
BLOCK_RECORD
5
1B
100
AcDbSymbolTableRecord
100
AcDbBlockTableRecord
2
*PAPER_SPACE
0
ENDTAB
0
ENDSEC
0
SECTION
2
BLOCKS
0
BLOCK
5
20
100
AcDbEntity
100
AcDbBlockBegin
2
*MODEL_SPACE
0
ENDBLK
5
21
100
AcDbEntity
100
AcDbBlockEnd
0
BLOCK
5
1C
100
AcDbEntity
100
AcDbBlockBegin
2
*PAPER_SPACE
0
ENDBLK
5
1D
100
AcDbEntity
100
AcDbBlockEnd
0
ENDSEC
0
SECTION
2
ENTITIES
0
LWPOLYLINE
5
100
100
AcDbEntity
8
0
100
AcDbPolyline
90
4
70
1
43
0.0
10
-104.25000000000004
20
-162.5
10
-104.25
20
-137.5
42
0.99999999999999989
10
-108.75
20
-137.5
10
-108.75000000000001
20
-162.5
42
0.99999999999999989
0
LWPOLYLINE
5
101
100
AcDbEntity
8
0
100
AcDbPolyline
90
4
70
1
43
0.0
10
-72.250000000000028
20
-162.5
10
-72.250000000000014
20
-137.5
42
0.99999999999999989
10
-76.75
20
-137.5
10
-76.750000000000028
20
-162.5
42
0.99999999999999989
0
LWPOLYLINE
5
102
100
AcDbEntity
8
0
100
AcDbPolyline
90
4
70
1
43
0.0
10
-104.25000000000004
20
-197.5
10
-104.25
20
-172.5
42
0.99999999999999989
10
-108.75
20
-172.5
10
-108.75000000000001
20
-197.5
42
0.99999999999999989
0
LWPOLYLINE
5
103
100
AcDbEntity
8
0
100
AcDbPolyline
90
4
70
1
43
0.0
10
-72.250000000000028
20
-197.5
10
-72.250000000000014
20
-172.5
42
0.99999999999999989
10
-76.75
20
-172.5
10
-76.750000000000028
20
-197.5
42
0.99999999999999989
0
LWPOLYLINE
5
104
100
AcDbEntity
8
0
100
AcDbPolyline
90
96
70
1
43
0.0
10
-327
20
-272.5
10
-327
20
-141.38972745734168
10
-314.65063509461112
20
-120.00000000000007
10
-327
20
-98.610272542658464
10
-327
20
-88.610272542658493
10
-310.32050807568885
20
-117.5000000000002
10
-275.67949192431121
20
-117.50000000000014
10
-258.35898384862242
20
-87.500000000000028
10
-275.67949192431126
20
-57.500000000000036
10
-310.32050807568885
20
-57.500000000000036
10
-327
20
-86.389727457341934
10
-327
20
-76.389727457341678
10
-314.65063509461112
20
-55.000000000000036
10
-327
20
-33.610272542658386
10
-327
20
-23.610272542658421
10
-310.32050807568891
20
-52.500000000000036
10
-275.67949192431132
20
-52.500000000000036
10
-258.35898384862259
20
-22.500000000000036
10
-275.67949192431132
20
7.5
10
-310.32050807568891
20
7.5
10
-327
20
-21.389727457341721
10
-327
20
-11.389727457341685
10
-314.65063509461112
20
9.9999999999999289
10
-327
20
31.389727457341543
10
-327
20
41.389727457341472
10
-310.32050807568885
20
12.499999999999805
10
-275.67949192431121
20
12.499999999999858
10
-258.35898384862242
20
42.499999999999964
10
-275.67949192431126
20
72.499999999999972
10
-310.32050807568885
20
72.499999999999972
10
-327
20
43.610272542658066
10
-327
20
53.61027254265835
10
-314.65063509461112
20
74.999999999999972
10
-327
20
96.389727457341579
10
-327
20
106.38972745734165
10
-310.32050807568891
20
77.499999999999972
10
-275.67949192431132
20
77.499999999999972
10
-258.35898384862259
20
107.49999999999997
10
-275.67949192431132
20
137.5
10
-310.32050807568891
20
137.5
10
-327
20
108.61027254265828
10
-327
20
118.61027254265835
10
-314.65063509461112
20
139.99999999999994
10
-327
20
161.38972745734151
10
-327
20
171.38972745734151
10
-310.32050807568885
20
142.4999999999998
10
-275.67949192431121
20
142.49999999999986
10
-258.35898384862242
20
172.49999999999997
10
-275.67949192431126
20
202.49999999999997
10
-310.32050807568885
20
202.49999999999997
10
-327
20
173.61027254265807
10
-327
20
183.61027254265827
10
-314.65063509461112
20
204.99999999999997
10
-327
20
226.38972745734156
10
-327
20
236.38972745734156
10
-310.32050807568891
20
207.49999999999997
10
-275.67949192431132
20
207.49999999999997
10
-258.35898384862259
20
237.49999999999997
10
-275.67949192431132
20
267.5
10
-310.32050807568891
20
267.5
10
-327
20
238.61027254265827
10
-327
20
248.61027254265827
10
-314.65063509461112
20
269.99999999999994
10
-316.09401076758525
20
272.5
10
-270.48929172439205
20
272.5
10
-271.93266739736617
20
269.99999999999989
10
-254.61215932167738
20
239.99999999999994
10
-219.97114317029991
20
239.99999999999989
10
-202.65063509461112
20
269.99999999999994
10
-204.09401076758519
20
272.5
10
-158.48929172439202
20
272.5
10
-159.93266739736615
20
269.99999999999989
10
-142.61215932167738
20
239.99999999999994
10
-107.97114317029987
20
239.99999999999989
10
-90.65063509461109
20
269.99999999999994
10
-92.094010767585132
20
272.5
10
-46.489291724392068
20
272.5
10
-47.93266739736616
20
269.99999999999989
10
-30.612159321677375
20
239.99999999999994
10
4.0288568297001248
20
239.99999999999989
10
21.34936490538891
20
269.99999999999994
10
19.905989232414854
20
272.5
10
65.510708275607996
20
272.5
10
64.067332602633854
20
269.99999999999989
10
81.387840678322632
20
239.99999999999994
10
116.02885682970013
20
239.99999999999989
10
133.34936490538891
20
269.99999999999994
10
131.90598923241487
20
272.5
10
177.51070827560798
20
272.5
10
176.06733260263385
20
269.99999999999989
10
193.38784067832265
20
239.99999999999994
10
228.02885682970015
20
239.99999999999989
10
245.34936490538894
20
269.99999999999994
10
243.90598923241484
20
272.5
10
326.99999999999994
20
272.5
10
327
20
-272.5
0
LWPOLYLINE
5
105
100
AcDbEntity
8
0
100
AcDbPolyline
90
6
70
1
43
0.0
10
-163.67949192431115
20
12.499999999999858
10
-146.35898384862242
20
42.499999999999964
10
-163.67949192431126
20
72.499999999999972
10
-198.32050807568885
20
72.499999999999972
10
-215.64101615137761
20
42.499999999999822
10
-198.32050807568879
20
12.499999999999805
0
LWPOLYLINE
5
106
100
AcDbEntity
8
0
100
AcDbPolyline
90
6
70
1
43
0.0
10
-107.97114317029987
20
109.99999999999989
10
-90.65063509461109
20
139.99999999999994
10
-107.9711431702998
20
169.99999999999986
10
-142.61215932167744
20
169.99999999999986
10
-159.93266739736615
20
139.99999999999989
10
-142.61215932167738
20
109.99999999999993
0
LWPOLYLINE
5
107
100
AcDbEntity
8
0
100
AcDbPolyline
90
6
70
1
43
0.0
10
25.679491924311151
20
207.49999999999997
10
60.320508075688721
20
207.49999999999997
10
77.641016151377471
20
237.49999999999997
10
60.320508075688721
20
267.5
10
25.679491924311151
20
267.5
10
8.3589838486223655
20
237.49999999999994
0
LWPOLYLINE
5
108
100
AcDbEntity
8
0
100
AcDbPolyline
90
6
70
1
43
0.0
10
137.67949192431115
20
207.49999999999997
10
172.32050807568874
20
207.49999999999997
10
189.6410161513775
20
237.49999999999997
10
172.32050807568874
20
267.5
10
137.67949192431115
20
267.5
10
120.35898384862237
20
237.49999999999994
0
LWPOLYLINE
5
109
100
AcDbEntity
8
0
100
AcDbPolyline
90
6
70
1
43
0.0
10
232.35898384862239
20
237.49999999999994
10
249.67949192431118
20
207.49999999999997
10
284.32050807568874
20
207.49999999999997
10
301.64101615137747
20
237.49999999999997
10
284.32050807568874
20
267.5
10
249.67949192431118
20
267.5
0
CIRCLE
5
110
100
AcDbEntity
8
0
100
AcDbCircle
10
312
20
-247.5
30
0
40
3.2000000000000028
210
0
220
0
230
1
0
CIRCLE
5
111
100
AcDbEntity
8
0
100
AcDbCircle
10
312
20
-122.5
30
0
40
3.2000000000000028
210
0
220
0
230
1
0
CIRCLE
5
112
100
AcDbEntity
8
0
100
AcDbCircle
10
311.99999999999994
20
2.5
30
0
40
3.2000000000000028
210
0
220
0
230
1
0
CIRCLE
5
113
100
AcDbEntity
8
0
100
AcDbCircle
10
311.99999999999994
20
127.5
30
0
40
3.2000000000000028
210
0
220
0
230
1
0
LWPOLYLINE
5
114
100
AcDbEntity
8
0
100
AcDbPolyline
90
6
70
1
43
0.0
10
-254.61215932167732
20
-85.000000000000071
10
-219.97114317029983
20
-85.000000000000028
10
-202.65063509461106
20
-55.000000000000036
10
-219.97114317029983
20
-25.000000000000071
10
-254.61215932167735
20
-25.000000000000071
10
-271.93266739736612
20
-55.000000000000107
0
LWPOLYLINE
5
115
100
AcDbEntity
8
0
100
AcDbPolyline
90
6
70
1
43
0.0
10
-271.93266739736612
20
74.999999999999886
10
-254.61215932167732
20
44.999999999999929
10
-219.97114317029983
20
44.999999999999964
10
-202.65063509461106
20
74.999999999999972
10
-219.97114317029983
20
104.99999999999993
10
-254.61215932167735
20
104.99999999999993
0
LWPOLYLINE
5
116
100
AcDbEntity
8
0
100
AcDbPolyline
90
6
70
1
43
0.0
10
-215.64101615137764
20
107.49999999999993
10
-198.32050807568888
20
77.499999999999972
10
-163.67949192431129
20
77.499999999999972
10
-146.35898384862256
20
107.49999999999997
10
-163.67949192431129
20
137.5
10
-198.32050807568888
20
137.5
0
LWPOLYLINE
5
117
100
AcDbEntity
8
0
100
AcDbPolyline
90
6
70
1
43
0.0
10
-271.93266739736617
20
139.99999999999989
10
-254.61215932167738
20
109.99999999999993
10
-219.97114317029991
20
109.99999999999989
10
-202.65063509461112
20
139.99999999999994
10
-219.97114317029983
20
169.99999999999986
10
-254.61215932167747
20
169.99999999999986
0
LWPOLYLINE
5
118
100
AcDbEntity
8
0
100
AcDbPolyline
90
6
70
1
43
0.0
10
-271.93266739736612
20
204.99999999999989
10
-254.61215932167732
20
174.99999999999994
10
-219.97114317029983
20
174.99999999999997
10
-202.65063509461106
20
204.99999999999997
10
-219.97114317029983
20
234.99999999999994
10
-254.61215932167735
20
234.99999999999994
0
LWPOLYLINE
5
119
100
AcDbEntity
8
0
100
AcDbPolyline
90
6
70
1
43
0.0
10
-215.64101615137761
20
172.49999999999983
10
-198.32050807568879
20
142.4999999999998
10
-163.67949192431115
20
142.49999999999986
10
-146.35898384862242
20
172.49999999999997
10
-163.67949192431126
20
202.49999999999997
10
-198.32050807568885
20
202.49999999999997
0
LWPOLYLINE
5
120
100
AcDbEntity
8
0
100
AcDbPolyline
90
6
70
1
43
0.0
10
-215.64101615137764
20
237.49999999999994
10
-198.32050807568888
20
207.49999999999997
10
-163.67949192431129
20
207.49999999999997
10
-146.35898384862256
20
237.49999999999997
10
-163.67949192431129
20
267.5
10
-198.32050807568888
20
267.5
0
CIRCLE
5
121
100
AcDbEntity
8
0
100
AcDbCircle
10
311.99999999999994
20
252.5
30
0
40
3.2000000000000028
210
0
220
0
230
1
0
LWPOLYLINE
5
122
100
AcDbEntity
8
0
100
AcDbPolyline
90
6
70
1
43
0.0
10
-103.64101615137763
20
237.49999999999994
10
-86.320508075688849
20
207.49999999999997
10
-51.679491924311272
20
207.49999999999997
10
-34.358983848622522
20
237.49999999999997
10
-51.679491924311272
20
267.5
10
-86.320508075688849
20
267.5
0
LWPOLYLINE
5
123
100
AcDbEntity
8
0
100
AcDbPolyline
90
6
70
1
43
0.0
10
-159.93266739736609
20
204.99999999999989
10
-142.6121593216773
20
174.99999999999994
10
-107.9711431702998
20
174.99999999999997
10
-90.650635094611047
20
204.99999999999997
10
-107.9711431702998
20
234.99999999999994
10
-142.61215932167732
20
234.99999999999994
0
LWPOLYLINE
5
124
100
AcDbEntity
8
0
100
AcDbPolyline
90
6
70
1
43
0.0
10
-271.93266739736617
20
9.9999999999998934
10
-254.61215932167738
20
-20.000000000000071
10
-219.97114317029991
20
-20.000000000000107
10
-202.65063509461112
20
9.9999999999999289
10
-219.97114317029983
20
39.999999999999858
10
-254.61215932167747
20
39.999999999999858
0
LWPOLYLINE
5
125
100
AcDbEntity
8
0
100
AcDbPolyline
90
6
70
1
43
0.0
10
64.067332602633925
20
204.99999999999989
10
81.387840678322704
20
174.99999999999994
10
116.0288568297002
20
174.99999999999997
10
133.34936490538897
20
204.99999999999997
10
116.0288568297002
20
234.99999999999994
10
81.387840678322675
20
234.99999999999994
0
LWPOLYLINE
5
126
100
AcDbEntity
8
0
100
AcDbPolyline
90
6
70
1
43
0.0
10
-30.612159321677304
20
174.99999999999994
10
4.0288568297001959
20
174.99999999999997
10
21.349364905388946
20
204.99999999999997
10
4.0288568297001959
20
234.99999999999994
10
-30.612159321677339
20
234.99999999999994
10
-47.932667397366089
20
204.99999999999989
0
LWPOLYLINE
5
127
100
AcDbEntity
8
0
100
AcDbPolyline
90
6
70
1
43
0.0
10
-86.320508075688764
20
142.4999999999998
10
-51.679491924311129
20
142.49999999999986
10
-34.35898384862238
20
172.49999999999997
10
-51.679491924311236
20
202.49999999999997
10
-86.320508075688807
20
202.49999999999997
10
-103.64101615137758
20
172.49999999999983
0
LWPOLYLINE
5
128
100
AcDbEntity
8
0
100
AcDbPolyline
90
6
70
1
43
0.0
10
-146.35898384862256
20
-22.500000000000036
10
-163.67949192431129
20
7.5
10
-198.32050807568888
20
7.5
10
-215.64101615137764
20
-22.500000000000071
10
-198.32050807568888
20
-52.500000000000036
10
-163.67949192431129
20
-52.500000000000036
0
LWPOLYLINE
5
129
100
AcDbEntity
8
0
100
AcDbPolyline
90
6
70
1
43
0.0
10
-142.6121593216773
20
44.999999999999929
10
-107.9711431702998
20
44.999999999999964
10
-90.650635094611047
20
74.999999999999972
10
-107.9711431702998
20
104.99999999999993
10
-142.61215932167732
20
104.99999999999993
10
-159.93266739736609
20
74.999999999999886
0
CIRCLE
5
130
100
AcDbEntity
8
0
100
AcDbCircle
10
-308
20
-247.5
30
0
40
3.2000000000000028
210
0
220
0
230
1
0
CIRCLE
5
131
100
AcDbEntity
8
0
100
AcDbCircle
10
-308
20
-122.5
30
0
40
3.2000000000000028
210
0
220
0
230
1
0
LWPOLYLINE
5
132
100
AcDbEntity
8
0
100
AcDbPolyline
90
13
70
1
43
0.0
10
124.12455629146291
20
16.816568505645243
10
117.76821831432942
20
27.732888075070136
10
45
20
27.732888075070136
10
40.562090068022698
20
35.354516001726807
10
113.33030838235211
20
35.354516001726807
10
106.33715412163598
20
47.364498319043662
10
33.568935807306559
20
47.364498319043662
10
29.230664534537638
20
54.815007678798992
10
102.01555463186818
20
54.815007678798992
10
95.493554343017308
20
66.015834261825475
10
22.708664245686776
20
66.015834261825475
10
16.066810680193679
20
54.815007678798992
10
38.308437683583691
20
16.617430868629199
0
LWPOLYLINE
5
133
100
AcDbEntity
8
0
100
AcDbPolyline
90
7
70
1
43
0.0
10
157.00000233948231
20
-40.000000596046448
10
128.00000190734863
20
10.000000149011612
10
78.000001162290573
20
10.000000149011612
10
66.000000983476639
20
-11.000000163912773
10
67.589166371021605
20
-13.739940487266157
10
63.733972649846116
20
-14.965549747766186
10
49.483965305911951
20
-39.90306259965098
0
LWPOLYLINE
5
134
100
AcDbEntity
8
0
100
AcDbPolyline
90
5
70
1
43
0.0
10
29.470392936322973
20
16.81656850564524
10
0.88170374803574703
20
65.914534720312417
10
-62.420145211367611
20
65.914534720312417
10
-83.992041569489572
20
29.008069673883092
10
-77.000001147389412
20
17.00000025331974
0
LWPOLYLINE
5
135
100
AcDbEntity
8
0
100
AcDbPolyline
90
12
70
1
43
0.0
10
41.000000610947609
20
-40.000000596046448
10
70.000001043081284
20
10.000000149011612
10
-38.000000566244125
20
10.000000149011612
10
-30.000000447034836
20
-2.0000000298023224
10
49.000000730156898
20
-2.0000000298023224
10
44.697491311691394
20
-9.4181197168118107
10
-26.519998514778411
20
-9.4181197168118107
10
-18.759337082098213
20
-21.059111865832097
10
37.945715865259629
20
-21.059111865832097
10
34.000000506639481
20
-28.000000417232513
10
-15.645456060681163
20
-28.000000417232513
10
-8.2608405660264328
20
-40.000000596046448
0
LWPOLYLINE
5
136
100
AcDbEntity
8
0
100
AcDbPolyline
90
12
70
1
43
0.0
10
-16.000000238418579
20
-40.000000596046448
10
-46.000000685453415
20
10.000000149011612
10
-95.000001415610313
20
10.000000149011612
10
-102.00000151991844
20
-2.0000000298023224
10
-52.000000774860382
20
-2.0000000298023224
10
-47.716616770581204
20
-9.1389733702676175
10
-106.00000157952309
20
-9.1389733702676157
10
-113.00000168383121
20
-21.000000312924385
10
-41.000000610947609
20
-21.000000312924385
10
-36.000000536441803
20
-28.000000417232513
10
-117.1311786634645
20
-28.000000417232513
10
-124.00000184774399
20
-40.000000596046448
0
LWPOLYLINE
5
137
100
AcDbEntity
8
0
100
AcDbPolyline
90
4
70
1
43
0.0
10
-6.0000000894069672
20
55.000000819563866
10
9.0887463984564931
20
28.009250595815082
10
-70
20
28.009250595815082
10
-54.999999544530695
20
55.000000819563866
0
LWPOLYLINE
5
138
100
AcDbEntity
8
0
100
AcDbPolyline
90
4
70
1
43
0.0
10
121.48387783923928
20
-2.0000000298023224
10
125.48387789884393
20
-9.0000001341104507
10
81.000001206994057
20
-9.0000001341104507
10
85.000001266598701
20
-2.0000000298023224
0
LWPOLYLINE
5
139
100
AcDbEntity
8
0
100
AcDbPolyline
90
4
70
1
43
0.0
10
70.000001043081284
20
-28.000000417232513
10
73.667126617174617
20
-20.925956110356609
10
132.34671448171773
20
-20.978862465853368
10
136.45372555791164
20
-28.059916045498028
0
CIRCLE
5
140
100
AcDbEntity
8
0
100
AcDbCircle
10
-308.00000000000006
20
252.5
30
0
40
3.2000000000000028
210
0
220
-0
230
1
0
CIRCLE
5
141
100
AcDbEntity
8
0
100
AcDbCircle
10
-308.00000000000006
20
127.5
30
0
40
3.2000000000000028
210
0
220
-0
230
1
0
CIRCLE
5
142
100
AcDbEntity
8
0
100
AcDbCircle
10
-308.00000000000006
20
2.5
30
0
40
3.2000000000000028
210
0
220
-0
230
1
0
LINE
5
143
100
AcDbEntity
8
0
100
AcDbLine
10
-327
20
272.5
30
0
11
-316.09401076758525
21
272.5
31
0
0
LINE
5
144
100
AcDbEntity
8
0
100
AcDbLine
10
-327
20
248.61027254265835
30
0
11
-327
21
272.5
31
0
0
LINE
5
145
100
AcDbEntity
8
0
100
AcDbLine
10
-327
20
236.38972745734156
30
0
11
-327
21
238.61027254265827
31
0
0
LINE
5
146
100
AcDbEntity
8
0
100
AcDbLine
10
-327
20
183.61027254265827
30
0
11
-327
21
226.38972745734162
31
0
0
LINE
5
147
100
AcDbEntity
8
0
100
AcDbLine
10
-327
20
171.38972745734156
30
0
11
-327
21
173.61027254265815
31
0
0
LINE
5
148
100
AcDbEntity
8
0
100
AcDbLine
10
-327
20
118.61027254265835
30
0
11
-327
21
161.38972745734151
31
0
0
LINE
5
149
100
AcDbEntity
8
0
100
AcDbLine
10
-327
20
106.38972745734156
30
0
11
-327
21
108.61027254265829
31
0
0
LINE
5
150
100
AcDbEntity
8
0
100
AcDbLine
10
-327
20
53.610272542658294
30
0
11
-327
21
96.389727457341621
31
0
0
LINE
5
151
100
AcDbEntity
8
0
100
AcDbLine
10
-327
20
41.389727457341586
30
0
11
-327
21
43.610272542658123
31
0
0
LINE
5
152
100
AcDbEntity
8
0
100
AcDbLine
10
-327
20
-11.389727457341658
30
0
11
-327
21
31.389727457341525
31
0
0
LINE
5
153
100
AcDbEntity
8
0
100
AcDbLine
10
-327
20
-23.610272542658429
30
0
11
-327
21
-21.389727457341703
31
0
0
LINE
5
154
100
AcDbEntity
8
0
100
AcDbLine
10
-327
20
-76.389727457341706
30
0
11
-327
21
-33.610272542658386
31
0
0
LINE
5
155
100
AcDbEntity
8
0
100
AcDbLine
10
-327
20
-88.610272542658421
30
0
11
-327
21
-86.389727457341877
31
0
0
LINE
5
156
100
AcDbEntity
8
0
100
AcDbLine
10
-327
20
-141.38972745734165
30
0
11
-327
21
-98.610272542658478
31
0
0
LWPOLYLINE
5
157
100
AcDbEntity
8
0
100
AcDbPolyline
90
4
70
1
43
0.0
10
-104.25000000000003
20
-197.5
42
-0.99999999999999989
10
-108.75000000000001
20
-197.5
10
-108.75000000000003
20
-172.5
42
-0.99999999999999989
10
-104.25
20
-172.5
0
LWPOLYLINE
5
158
100
AcDbEntity
8
0
100
AcDbPolyline
90
4
70
1
43
0.0
10
-72.250000000000028
20
-197.50000000000006
42
-0.99999999999999989
10
-76.750000000000028
20
-197.5
10
-76.75
20
-172.49999999999994
42
-0.99999999999999989
10
-72.250000000000014
20
-172.5
0
LWPOLYLINE
5
159
100
AcDbEntity
8
0
100
AcDbPolyline
90
4
70
1
43
0.0
10
-72.250000000000028
20
-162.50000000000006
42
-0.99999999999999989
10
-76.750000000000028
20
-162.5
10
-76.75
20
-137.5
42
-0.99999999999999989
10
-72.250000000000014
20
-137.5
0
LWPOLYLINE
5
160
100
AcDbEntity
8
0
100
AcDbPolyline
90
4
70
1
43
0.0
10
-104.25000000000004
20
-162.5
10
-104.25
20
-137.5
42
0.99999999999999989
10
-108.75
20
-137.5
10
-108.75000000000003
20
-162.5
42
0.99999999999999989
0
CIRCLE
5
161
100
AcDbEntity
8
0
100
AcDbCircle
10
312
20
-247.5
30
0
40
3.2000000000000028
210
0
220
0
230
1
0
CIRCLE
5
162
100
AcDbEntity
8
0
100
AcDbCircle
10
312
20
-122.5
30
0
40
3.2000000000000028
210
0
220
0
230
1
0
CIRCLE
5
163
100
AcDbEntity
8
0
100
AcDbCircle
10
311.99999999999994
20
2.5
30
0
40
3.2000000000000028
210
0
220
0
230
1
0
CIRCLE
5
164
100
AcDbEntity
8
0
100
AcDbCircle
10
311.99999999999994
20
127.5
30
0
40
3.2000000000000028
210
0
220
0
230
1
0
CIRCLE
5
165
100
AcDbEntity
8
0
100
AcDbCircle
10
311.99999999999994
20
252.5
30
0
40
3.2000000000000028
210
0
220
0
230
1
0
CIRCLE
5
166
100
AcDbEntity
8
0
100
AcDbCircle
10
-308
20
-247.5
30
0
40
3.2000000000000028
210
0
220
0
230
1
0
CIRCLE
5
167
100
AcDbEntity
8
0
100
AcDbCircle
10
-308
20
-122.5
30
0
40
3.2000000000000028
210
0
220
0
230
1
0
LINE
5
168
100
AcDbEntity
8
0
100
AcDbLine
10
-270.48929172439205
20
272.5
30
0
11
-204.09401076758519
21
272.5
31
0
0
LINE
5
169
100
AcDbEntity
8
0
100
AcDbLine
10
-158.48929172439202
20
272.5
30
0
11
-92.094010767585189
21
272.5
31
0
0
LINE
5
170
100
AcDbEntity
8
0
100
AcDbLine
10
-46.489291724392032
20
272.5
30
0
11
19.905989232414811
21
272.5
31
0
0
LINE
5
171
100
AcDbEntity
8
0
100
AcDbLine
10
65.510708275607982
20
272.5
30
0
11
131.90598923241481
21
272.5
31
0
0
LINE
5
172
100
AcDbEntity
8
0
100
AcDbLine
10
177.51070827560798
20
272.5
30
0
11
243.90598923241484
21
272.5
31
0
0
LWPOLYLINE
5
173
100
AcDbEntity
8
0
100
AcDbPolyline
90
6
70
1
43
0.0
10
-254.61215932167735
20
234.99999999999994
10
-271.93266739736612
20
204.99999999999989
10
-254.61215932167732
20
174.99999999999994
10
-219.97114317029983
20
174.99999999999997
10
-202.65063509461106
20
204.99999999999997
10
-219.97114317029983
20
234.99999999999994
0
ENDSEC
0
SECTION
2
OBJECTS
0
DICTIONARY
5
C
100
AcDbDictionary
3
ACAD_GROUP
350
D
3
ACAD_MLINESTYLE
350
17
0
DICTIONARY
5
D
100
AcDbDictionary
0
DICTIONARY
5
1A
330
C
100
AcDbDictionary
0
DICTIONARY
5
17
100
AcDbDictionary
0
ENDSEC
0
EOF
