0
SECTION
2
HEADER
9
$INSUNITS
70
4
9
$ACADVER
1
AC1014
9
$HANDSEED
5
FFFF
0
ENDSEC
0
SECTION
2
TABLES
0
TABLE
2
VPORT
5
8
100
AcDbSymbolTable
0
ENDTAB
0
TABLE
2
LTYPE
5
5
100
AcDbSymbolTable
0
LTYPE
5
14
100
AcDbSymbolTableRecord
100
AcDbLinetypeTableRecord
2
BYBLOCK
70
0
0
LTYPE
5
15
100
AcDbSymbolTableRecord
100
AcDbLinetypeTableRecord
2
BYLAYER
70
0
0
ENDTAB
0
TABLE
2
LAYER
5
2
100
AcDbSymbolTable
70
2
0
LAYER
5
50
100
AcDbSymbolTableRecord
100
AcDbLayerTableRecord
2
0
70
0
6
CONTINUOUS
0
ENDTAB
0
TABLE
2
STYLE
5
3
100
AcDbSymbolTable
70
1
0
STYLE
5
11
100
AcDbSymbolTableRecord
100
AcDbTextStyleTableRecord
2
STANDARD
70
0
0
ENDTAB
0
TABLE
2
VIEW
5
6
100
AcDbSymbolTable
70
0
0
ENDTAB
0
TABLE
2
UCS
5
7
100
AcDbSymbolTable
70
0
0
ENDTAB
0
TABLE
2
APPID
5
9
100
AcDbSymbolTable
70
2
0
APPID
5
12
100
AcDbSymbolTableRecord
100
AcDbRegAppTableRecord
2
ACAD
70
0
0
ENDTAB
0
TABLE
2
DIMSTYLE
5
A
100
AcDbSymbolTable
70
1
0
ENDTAB
0
TABLE
2
BLOCK_RECORD
5
1
100
AcDbSymbolTable
70
1
0
BLOCK_RECORD
5
1F
100
AcDbSymbolTableRecord
100
AcDbBlockTableRecord
2
*MODEL_SPACE
0
BLOCK_RECORD
5
1B
100
AcDbSymbolTableRecord
100
AcDbBlockTableRecord
2
*PAPER_SPACE
0
ENDTAB
0
ENDSEC
0
SECTION
2
BLOCKS
0
BLOCK
5
20
100
AcDbEntity
100
AcDbBlockBegin
2
*MODEL_SPACE
0
ENDBLK
5
21
100
AcDbEntity
100
AcDbBlockEnd
0
BLOCK
5
1C
100
AcDbEntity
100
AcDbBlockBegin
2
*PAPER_SPACE
0
ENDBLK
5
1D
100
AcDbEntity
100
AcDbBlockEnd
0
ENDSEC
0
SECTION
2
ENTITIES
0
LWPOLYLINE
5
100
100
AcDbEntity
8
0
100
AcDbPolyline
90
96
70
1
43
0.0
10
1031.0000000000002
20
-141.38972745734148
10
1031.0000000000002
20
-272.49999999999983
10
377.00000000000011
20
-272.49999999999994
10
377
20
272.50000000000006
10
460.09401076758513
20
272.50000000000006
10
458.65063509461106
20
269.99999999999994
10
475.97114317029985
20
239.99999999999994
10
510.61215932167732
20
240
10
527.93266739736612
20
269.99999999999994
10
526.48929172439193
20
272.50000000000006
10
572.09401076758513
20
272.50000000000006
10
570.65063509461106
20
270
10
587.97114317029991
20
239.99999999999997
10
622.61215932167738
20
240
10
639.93266739736612
20
270
10
638.48929172439193
20
272.50000000000011
10
684.09401076758513
20
272.50000000000011
10
682.65063509461106
20
270.00000000000006
10
699.9711431702998
20
240
10
734.61215932167738
20
240.00000000000003
10
751.93266739736612
20
270
10
750.48929172439205
20
272.50000000000011
10
796.09401076758513
20
272.50000000000011
10
794.65063509461106
20
270.00000000000006
10
811.97114317029991
20
240.00000000000003
10
846.61215932167738
20
240.00000000000006
10
863.93266739736623
20
270.00000000000006
10
862.48929172439205
20
272.50000000000011
10
908.09401076758513
20
272.50000000000011
10
906.65063509461106
20
270.00000000000006
10
923.97114317029991
20
240.00000000000006
10
958.61215932167738
20
240.00000000000011
10
975.93266739736623
20
270.00000000000006
10
974.48929172439205
20
272.50000000000017
10
1020.0940107675852
20
272.50000000000017
10
1018.6506350946111
20
270.00000000000011
10
1031
20
248.61027254265846
10
1031
20
238.61027254265846
10
1014.3205080756888
20
267.50000000000017
10
979.67949192431138
20
267.50000000000017
10
962.35898384862253
20
237.50000000000014
10
979.67949192431138
20
207.50000000000014
10
1014.3205080756888
20
207.50000000000014
10
1031
20
236.38972745734176
10
1031
20
226.38972745734176
10
1018.6506350946111
20
205.00000000000014
10
1031
20
183.61027254265846
10
1031
20
173.61027254265824
10
1014.3205080756888
20
202.50000000000014
10
979.67949192431138
20
202.50000000000014
10
962.35898384862253
20
172.50000000000014
10
979.67949192431115
20
142.50000000000003
10
1014.3205080756888
20
142.49999999999997
10
1031
20
171.38972745734168
10
1031
20
161.38972745734168
10
1018.6506350946113
20
140.00000000000011
10
1031
20
118.61027254265852
10
1031
20
108.61027254265846
10
1014.3205080756888
20
137.50000000000017
10
979.67949192431138
20
137.50000000000017
10
962.35898384862253
20
107.50000000000013
10
979.67949192431138
20
77.500000000000128
10
1014.3205080756888
20
77.500000000000128
10
1031
20
106.38972745734182
10
1031
20
96.389727457341763
10
1018.6506350946111
20
75.000000000000128
10
1031
20
53.610272542658528
10
1031
20
43.610272542658244
10
1014.3205080756888
20
72.500000000000128
10
979.67949192431138
20
72.500000000000128
10
962.35898384862253
20
42.500000000000128
10
979.67949192431115
20
12.50000000000002
10
1014.3205080756888
20
12.499999999999973
10
1031
20
41.38972745734165
10
1031
20
31.389727457341721
10
1018.6506350946113
20
10.000000000000105
10
1031
20
-11.389727457341509
10
1031
20
-21.389727457341543
10
1014.320508075689
20
7.5000000000001732
10
979.67949192431138
20
7.5000000000001643
10
962.35898384862264
20
-22.499999999999876
10
979.67949192431138
20
-52.499999999999872
10
1014.320508075689
20
-52.499999999999865
10
1031
20
-23.610272542658244
10
1031
20
-33.610272542658208
10
1018.6506350946113
20
-54.999999999999865
10
1031
20
-76.389727457341507
10
1031
20
-86.389727457341763
10
1014.3205080756888
20
-57.499999999999865
10
979.67949192431138
20
-57.499999999999872
10
962.35898384862253
20
-87.499999999999872
10
979.67949192431115
20
-117.49999999999999
10
1014.3205080756888
20
-117.50000000000001
10
1031
20
-88.610272542658322
10
1031
20
-98.610272542658279
10
1018.6506350946113
20
-119.99999999999989
0
LWPOLYLINE
5
101
100
AcDbEntity
8
0
100
AcDbPolyline
90
6
70
1
43
0.0
10
850.35898384862253
20
42.500000000000085
10
867.67949192431115
20
12.499999999999991
10
902.32050807568885
20
12.499999999999947
10
919.6410161513777
20
42.499999999999964
10
902.32050807568885
20
72.500000000000114
10
867.67949192431138
20
72.500000000000099
0
LWPOLYLINE
5
102
100
AcDbEntity
8
0
100
AcDbPolyline
90
6
70
1
43
0.0
10
794.65063509461118
20
140.00000000000003
10
811.97114317029991
20
110.00000000000001
10
846.61215932167738
20
110.00000000000006
10
863.93266739736623
20
140.00000000000003
10
846.6121593216775
20
170
10
811.97114317029991
20
170
0
LWPOLYLINE
5
103
100
AcDbEntity
8
0
100
AcDbPolyline
90
6
70
1
43
0.0
10
643.67949192431126
20
207.50000000000006
10
678.32050807568885
20
207.50000000000006
10
695.64101615137758
20
237.50000000000003
10
678.32050807568885
20
267.50000000000011
10
643.67949192431126
20
267.50000000000011
10
626.35898384862253
20
237.50000000000003
0
LWPOLYLINE
5
104
100
AcDbEntity
8
0
100
AcDbPolyline
90
6
70
1
43
0.0
10
531.67949192431126
20
207.50000000000003
10
566.32050807568885
20
207.50000000000003
10
583.64101615137758
20
237.5
10
566.32050807568885
20
267.50000000000006
10
531.67949192431126
20
267.50000000000006
10
514.35898384862253
20
237.50000000000003
0
LWPOLYLINE
5
105
100
AcDbEntity
8
0
100
AcDbPolyline
90
6
70
1
43
0.0
10
454.32050807568885
20
207.5
10
471.64101615137758
20
237.49999999999997
10
454.32050807568885
20
267.50000000000006
10
419.67949192431121
20
267.50000000000006
10
402.35898384862253
20
237.5
10
419.67949192431121
20
207.5
0
CIRCLE
5
106
100
AcDbEntity
8
0
100
AcDbCircle
10
392.00000000000017
20
-247.49999999999997
30
0
40
3.2000000000000028
210
0
220
0
230
1
0
CIRCLE
5
107
100
AcDbEntity
8
0
100
AcDbCircle
10
392.00000000000011
20
-122.5
30
0
40
3.2000000000000028
210
0
220
0
230
1
0
CIRCLE
5
108
100
AcDbEntity
8
0
100
AcDbCircle
10
392.00000000000011
20
2.5000000000000107
30
0
40
3.2000000000000028
210
0
220
0
230
1
0
CIRCLE
5
109
100
AcDbEntity
8
0
100
AcDbCircle
10
392
20
127.5
30
0
40
3.2000000000000028
210
0
220
0
230
1
0
LWPOLYLINE
5
110
100
AcDbEntity
8
0
100
AcDbPolyline
90
6
70
1
43
0.0
10
923.97114317029991
20
-84.999999999999886
10
958.61215932167738
20
-84.999999999999915
10
975.93266739736623
20
-54.999999999999943
10
958.61215932167738
20
-24.999999999999911
10
923.97114317029991
20
-24.999999999999922
10
906.65063509461106
20
-54.999999999999893
0
LWPOLYLINE
5
111
100
AcDbEntity
8
0
100
AcDbPolyline
90
6
70
1
43
0.0
10
958.61215932167738
20
45.000000000000078
10
975.932667397366
20
75.000000000000057
10
958.61215932167738
20
105.00000000000009
10
923.97114317029991
20
105.00000000000007
10
906.65063509461106
20
75.000000000000114
10
923.97114317029991
20
45.000000000000107
0
LWPOLYLINE
5
112
100
AcDbEntity
8
0
100
AcDbPolyline
90
6
70
1
43
0.0
10
902.32050807568896
20
77.500000000000114
10
919.6410161513777
20
107.50000000000007
10
902.32050807568896
20
137.50000000000014
10
867.67949192431138
20
137.50000000000011
10
850.35898384862264
20
107.50000000000009
10
867.67949192431138
20
77.500000000000099
0
LWPOLYLINE
5
113
100
AcDbEntity
8
0
100
AcDbPolyline
90
6
70
1
43
0.0
10
958.61215932167738
20
110.00000000000009
10
975.93266739736623
20
140.00000000000006
10
958.6121593216775
20
170.00000000000003
10
923.97114317029991
20
170.00000000000003
10
906.65063509461106
20
140.00000000000006
10
923.97114317029991
20
110.00000000000003
0
LWPOLYLINE
5
114
100
AcDbEntity
8
0
100
AcDbPolyline
90
6
70
1
43
0.0
10
958.61215932167738
20
175.00000000000011
10
975.932667397366
20
205.00000000000006
10
958.61215932167738
20
235.00000000000011
10
923.97114317029968
20
235.00000000000011
10
906.65063509461106
20
205.00000000000011
10
923.97114317029991
20
175.00000000000014
0
LWPOLYLINE
5
115
100
AcDbEntity
8
0
100
AcDbPolyline
90
6
70
1
43
0.0
10
902.32050807568885
20
142.49999999999994
10
919.6410161513777
20
172.5
10
902.32050807568885
20
202.50000000000011
10
867.67949192431138
20
202.50000000000011
10
850.3589838486223
20
172.50000000000011
10
867.67949192431115
20
142.49999999999997
0
LWPOLYLINE
5
116
100
AcDbEntity
8
0
100
AcDbPolyline
90
6
70
1
43
0.0
10
902.32050807568885
20
207.50000000000011
10
919.6410161513777
20
237.50000000000011
10
902.32050807568885
20
267.50000000000011
10
867.67949192431138
20
267.50000000000011
10
850.35898384862253
20
237.50000000000011
10
867.67949192431138
20
207.50000000000011
0
CIRCLE
5
117
100
AcDbEntity
8
0
100
AcDbCircle
10
392
20
252.50000000000003
30
0
40
3.2000000000000028
210
0
220
0
230
1
0
LWPOLYLINE
5
118
100
AcDbEntity
8
0
100
AcDbPolyline
90
6
70
1
43
0.0
10
790.32050807568885
20
207.50000000000011
10
807.64101615137758
20
237.50000000000006
10
790.32050807568885
20
267.50000000000011
10
755.67949192431126
20
267.50000000000011
10
738.35898384862253
20
237.50000000000006
10
755.67949192431126
20
207.50000000000006
0
LWPOLYLINE
5
119
100
AcDbEntity
8
0
100
AcDbPolyline
90
6
70
1
43
0.0
10
846.61215932167738
20
175.00000000000006
10
863.932667397366
20
205.00000000000003
10
846.61215932167738
20
235.00000000000006
10
811.97114317029991
20
235.00000000000006
10
794.65063509461106
20
205.00000000000011
10
811.97114317029991
20
175.00000000000011
0
LWPOLYLINE
5
120
100
AcDbEntity
8
0
100
AcDbPolyline
90
6
70
1
43
0.0
10
958.61215932167738
20
-19.999999999999915
10
975.93266739736623
20
10.000000000000053
10
958.6121593216775
20
40.000000000000014
10
923.97114317029991
20
40.000000000000007
10
906.65063509461118
20
10.000000000000073
10
923.97114317030002
20
-19.999999999999957
0
LWPOLYLINE
5
121
100
AcDbEntity
8
0
100
AcDbPolyline
90
6
70
1
43
0.0
10
622.61215932167727
20
175
10
639.93266739736612
20
205
10
622.61215932167727
20
235
10
587.9711431702998
20
235
10
570.65063509461106
20
205.00000000000003
10
587.9711431702998
20
175.00000000000003
0
LWPOLYLINE
5
122
100
AcDbEntity
8
0
100
AcDbPolyline
90
6
70
1
43
0.0
10
699.9711431702998
20
175.00000000000006
10
734.61215932167738
20
175.00000000000003
10
751.93266739736612
20
205
10
734.61215932167738
20
235.00000000000003
10
699.9711431702998
20
235.00000000000003
10
682.65063509461106
20
205.00000000000006
0
LWPOLYLINE
5
123
100
AcDbEntity
8
0
100
AcDbPolyline
90
6
70
1
43
0.0
10
755.67949192431115
20
142.49999999999997
10
790.32050807568885
20
142.49999999999991
10
807.64101615137758
20
172.49999999999997
10
790.32050807568885
20
202.50000000000011
10
755.67949192431126
20
202.50000000000006
10
738.3589838486223
20
172.50000000000006
0
LWPOLYLINE
5
124
100
AcDbEntity
8
0
100
AcDbPolyline
90
6
70
1
43
0.0
10
867.67949192431138
20
7.5000000000001332
10
850.35898384862264
20
-22.499999999999901
10
867.67949192431138
20
-52.499999999999901
10
902.32050807568896
20
-52.499999999999893
10
919.6410161513777
20
-22.499999999999922
10
902.32050807568896
20
7.5000000000001439
0
LWPOLYLINE
5
125
100
AcDbEntity
8
0
100
AcDbPolyline
90
6
70
1
43
0.0
10
811.97114317029991
20
45.000000000000078
10
846.61215932167738
20
45.000000000000057
10
863.93266739736623
20
75.000000000000028
10
846.61215932167738
20
105.00000000000006
10
811.97114317029991
20
105.00000000000006
10
794.65063509461106
20
75.000000000000085
0
CIRCLE
5
126
100
AcDbEntity
8
0
100
AcDbCircle
10
1012.0000000000002
20
-247.49999999999983
30
0
40
3.2000000000000028
210
0
220
0
230
1
0
CIRCLE
5
127
100
AcDbEntity
8
0
100
AcDbCircle
10
1012.0000000000002
20
-122.49999999999983
30
0
40
3.2000000000000028
210
0
220
0
230
1
0
LWPOLYLINE
5
128
100
AcDbEntity
8
0
100
AcDbPolyline
90
4
70
1
43
0.0
10
776.25000000000011
20
-172.49999999999986
10
776.25000000000011
20
-197.49999999999986
42
0.99999999999999989
10
780.75000000000023
20
-197.49999999999986
10
780.75
20
-172.49999999999986
42
0.99999999999999989
0
LWPOLYLINE
5
129
100
AcDbEntity
8
0
100
AcDbPolyline
90
4
70
1
43
0.0
10
808.25000000000023
20
-172.49999999999986
10
808.25000000000023
20
-197.49999999999986
42
0.99999999999999989
10
812.75000000000023
20
-197.49999999999986
10
812.75
20
-172.49999999999986
42
0.99999999999999989
0
LWPOLYLINE
5
130
100
AcDbEntity
8
0
100
AcDbPolyline
90
4
70
1
43
0.0
10
776.25000000000011
20
-137.49999999999989
10
776.25000000000011
20
-162.49999999999986
42
0.99999999999999989
10
780.75000000000023
20
-162.49999999999986
10
780.75
20
-137.49999999999989
42
0.99999999999999989
0
LWPOLYLINE
5
131
100
AcDbEntity
8
0
100
AcDbPolyline
90
4
70
1
43
0.0
10
808.25000000000023
20
-137.49999999999989
10
808.25000000000023
20
-162.49999999999986
42
0.99999999999999989
10
812.75
20
-162.49999999999986
10
812.75
20
-137.49999999999989
42
0.99999999999999989
0
LWPOLYLINE
5
132
100
AcDbEntity
8
0
100
AcDbPolyline
90
5
70
1
43
0.0
10
691.29759825110125
20
14.603099591548929
10
662.70890906281409
20
63.701065806216107
10
599.40706010341069
20
63.701065806216107
10
577.8351637452887
20
26.794600759786782
10
584.8272041673888
20
14.78653133922343
0
LWPOLYLINE
5
133
100
AcDbEntity
8
0
100
AcDbPolyline
90
7
70
1
43
0.0
10
818.82720765426052
20
-42.213469510142758
10
789.82720722212684
20
7.7865312349153015
10
739.82720647706878
20
7.7865312349153015
10
727.82720629825485
20
-13.213469078009084
10
729.41637168579985
20
-15.953409401362467
10
725.56117796462445
20
-17.179018661862496
10
711.31117062069029
20
-42.11653151374729
0
LWPOLYLINE
5
134
100
AcDbEntity
8
0
100
AcDbPolyline
90
13
70
1
43
0.0
10
785.95176160624123
20
14.603099591548933
10
779.5954236291077
20
25.519419160973825
10
706.82720531477821
20
25.519419160973825
10
702.38929538280104
20
33.141047087630497
10
775.15751369713041
20
33.141047087630497
10
768.1643594364142
20
45.151029404947352
10
695.39614112208483
20
45.151029404947352
10
691.05786984931592
20
52.601538764702681
10
763.84275994664654
20
52.601538764702681
10
757.32075965779563
20
63.802365347729165
10
684.53586956046502
20
63.802365347729165
10
677.89401599497194
20
52.601538764702681
10
700.13564299836185
20
14.403961954532889
0
LWPOLYLINE
5
135
100
AcDbEntity
8
0
100
AcDbPolyline
90
12
70
1
43
0.0
10
702.82720592572582
20
-42.213469510142758
10
731.8272063578595
20
7.7865312349153015
10
623.82720474853409
20
7.7865312349153015
10
631.82720486774338
20
-4.2134689438986328
10
710.82720604493511
20
-4.2134689438986328
10
706.52469662646968
20
-11.631588630908121
10
635.3072067999999
20
-11.631588630908121
10
643.06786823267998
20
-23.272580779928408
10
699.77292118003788
20
-23.272580779928408
10
695.82720582141769
20
-30.213469331328824
10
646.18174925409699
20
-30.213469331328824
10
653.56636474875188
20
-42.213469510142758
0
LWPOLYLINE
5
136
100
AcDbEntity
8
0
100
AcDbPolyline
90
12
70
1
43
0.0
10
645.82720507635963
20
-42.213469510142758
10
615.8272046293248
20
7.7865312349153015
10
566.8272038991679
20
7.7865312349153015
10
559.82720379485977
20
-4.2134689438986328
10
609.82720453991783
20
-4.2134689438986328
10
614.11058854419707
20
-11.352442284363926
10
555.82720373525513
20
-11.352442284363926
10
548.827203630947
20
-23.213469227020695
10
620.8272047038306
20
-23.213469227020695
10
625.82720477833641
20
-30.213469331328824
10
544.69602665131379
20
-30.213469331328824
10
537.82720346703422
20
-42.213469510142758
0
LWPOLYLINE
5
137
100
AcDbEntity
8
0
100
AcDbPolyline
90
4
70
1
43
0.0
10
731.8272063578595
20
-30.213469331328824
10
735.49433193195284
20
-23.139425024452919
10
794.17391979649597
20
-23.192331379949678
10
798.28093087268996
20
-30.273384959594338
0
LWPOLYLINE
5
138
100
AcDbEntity
8
0
100
AcDbPolyline
90
4
70
1
43
0.0
10
783.31108315401752
20
-4.2134689438986328
10
787.31108321362217
20
-11.213469048206761
10
742.82720652177227
20
-11.213469048206761
10
746.82720658137691
20
-4.2134689438986328
0
LWPOLYLINE
5
139
100
AcDbEntity
8
0
100
AcDbPolyline
90
4
70
1
43
0.0
10
655.82720522537124
20
52.786531905467555
10
670.91595171323479
20
25.795781681718772
10
591.82720531477821
20
25.795781681718772
10
606.82720577024759
20
52.786531905467555
0
CIRCLE
5
140
100
AcDbEntity
8
0
100
AcDbCircle
10
1012.0000000000002
20
2.5000000000001723
30
0
40
3.2000000000000028
210
0
220
-0
230
1
0
CIRCLE
5
141
100
AcDbEntity
8
0
100
AcDbCircle
10
1012
20
127.50000000000017
30
0
40
3.2000000000000028
210
0
220
-0
230
1
0
CIRCLE
5
142
100
AcDbEntity
8
0
100
AcDbCircle
10
1012
20
252.50000000000017
30
0
40
3.2000000000000028
210
0
220
-0
230
1
0
LINE
5
143
100
AcDbEntity
8
0
100
AcDbLine
10
1031
20
248.61027254265852
30
0
11
1031
21
272.50000000000017
31
0
0
LINE
5
144
100
AcDbEntity
8
0
100
AcDbLine
10
1031
20
272.50000000000017
30
0
11
1020.0940107675852
21
272.50000000000017
31
0
0
LINE
5
145
100
AcDbEntity
8
0
100
AcDbLine
10
974.48929172439205
20
272.50000000000017
30
0
11
908.09401076758513
21
272.50000000000011
31
0
0
LINE
5
146
100
AcDbEntity
8
0
100
AcDbLine
10
862.48929172439205
20
272.50000000000011
30
0
11
796.09401076758513
21
272.50000000000011
31
0
0
LINE
5
147
100
AcDbEntity
8
0
100
AcDbLine
10
750.48929172439205
20
272.50000000000011
30
0
11
684.09401076758513
21
272.50000000000011
31
0
0
LINE
5
148
100
AcDbEntity
8
0
100
AcDbLine
10
638.48929172439193
20
272.50000000000011
30
0
11
572.09401076758513
21
272.50000000000006
31
0
0
LINE
5
149
100
AcDbEntity
8
0
100
AcDbLine
10
526.48929172439193
20
272.50000000000006
30
0
11
460.09401076758513
21
272.50000000000006
31
0
0
LINE
5
150
100
AcDbEntity
8
0
100
AcDbLine
10
1031
20
236.38972745734176
30
0
11
1031
21
238.61027254265846
31
0
0
LINE
5
151
100
AcDbEntity
8
0
100
AcDbLine
10
1031
20
183.61027254265846
30
0
11
1031
21
226.38972745734179
31
0
0
LINE
5
152
100
AcDbEntity
8
0
100
AcDbLine
10
1031
20
171.38972745734176
30
0
11
1031
21
173.61027254265832
31
0
0
LINE
5
153
100
AcDbEntity
8
0
100
AcDbLine
10
1031
20
118.61027254265852
30
0
11
1031
21
161.38972745734168
31
0
0
LINE
5
154
100
AcDbEntity
8
0
100
AcDbLine
10
1031
20
106.38972745734173
30
0
11
1031
21
108.61027254265848
31
0
0
LINE
5
155
100
AcDbEntity
8
0
100
AcDbLine
10
1031
20
53.610272542658478
30
0
11
1031
21
96.389727457341792
31
0
0
LINE
5
156
100
AcDbEntity
8
0
100
AcDbLine
10
1031
20
41.389727457341763
30
0
11
1031
21
43.610272542658294
31
0
0
LINE
5
157
100
AcDbEntity
8
0
100
AcDbLine
10
1031
20
-11.389727457341483
30
0
11
1031
21
31.389727457341703
31
0
0
LINE
5
158
100
AcDbEntity
8
0
100
AcDbLine
10
1031
20
-23.610272542658251
30
0
11
1031
21
-21.389727457341525
31
0
0
LINE
5
159
100
AcDbEntity
8
0
100
AcDbLine
10
1031
20
-76.389727457341522
30
0
11
1031
21
-33.610272542658208
31
0
0
LINE
5
160
100
AcDbEntity
8
0
100
AcDbLine
10
1031
20
-88.610272542658237
30
0
11
1031
21
-86.389727457341706
31
0
0
LINE
5
161
100
AcDbEntity
8
0
100
AcDbLine
10
1031.0000000000002
20
-141.38972745734148
30
0
11
1031
21
-98.610272542658294
31
0
0
ENDSEC
0
SECTION
2
OBJECTS
0
DICTIONARY
5
C
100
AcDbDictionary
3
ACAD_GROUP
350
D
3
ACAD_MLINESTYLE
350
17
0
DICTIONARY
5
D
100
AcDbDictionary
0
DICTIONARY
5
1A
330
C
100
AcDbDictionary
0
DICTIONARY
5
17
100
AcDbDictionary
0
ENDSEC
0
EOF
